<svg viewBox="0 0 24 10" fill="none" xmlns="http://www.w3.org/2000/svg">
  <path
    fill-rule="evenodd"
    clip-rule="evenodd"
    d="M21.2867 2.48104H20.9331C20.7458 2.48171 20.5663 2.55375 20.4339 2.68144C20.3015 2.80914 20.2269 2.98212 20.2264 3.16263V4.95884C20.2485 5.42673 20.457 5.86841 20.8084 6.19199C21.1598 6.51556 21.6272 6.69613 22.1132 6.69613C22.5993 6.69613 23.0666 6.51556 23.418 6.19199C23.7695 5.86841 23.9779 5.42673 24 4.95884V2.48104H23.647C23.4596 2.48171 23.2801 2.55373 23.1476 2.68141C23.0151 2.80908 22.9404 2.98206 22.9397 3.16263V4.95884C22.9397 5.17006 22.8526 5.37264 22.6976 5.522C22.5426 5.67136 22.3324 5.75527 22.1132 5.75527C21.894 5.75527 21.6838 5.67136 21.5288 5.522C21.3738 5.37264 21.2867 5.17006 21.2867 4.95884V2.48104ZM17.5229 3.3484C18.1306 3.3484 18.3696 3.79337 18.3696 4.35257C18.3696 4.91177 17.9873 5.35674 17.3894 5.35674C16.8274 5.35674 16.5427 4.96951 16.5427 4.36387C16.5427 3.75822 16.9791 3.34651 17.5249 3.34651L17.5229 3.3484ZM18.3696 6.13435V6.03456C18.1579 6.23539 17.8538 6.381 17.3894 6.381C16.1774 6.381 15.4792 5.47599 15.4792 4.36575C15.4792 3.24484 16.3428 2.32602 17.5216 2.32602C18.7487 2.32602 19.4299 3.24421 19.4299 4.35508C19.4299 4.39085 19.4299 4.426 19.4299 4.46052V6.12556C19.4299 7.32241 18.5832 8.02721 17.3783 8.02721C16.5649 8.02721 15.8296 7.75922 15.8296 7.11906V6.7789C16.2002 6.98044 16.6141 7.09665 17.039 7.11843C17.5978 7.15735 18.3696 7.07074 18.3696 6.13435ZM12.1322 2.48104H11.7786C11.5913 2.48171 11.4118 2.55375 11.2794 2.68144C11.147 2.80914 11.0724 2.98212 11.0719 3.16263V4.95884C11.0603 5.20457 11.1005 5.45001 11.1901 5.68035C11.2797 5.91068 11.4168 6.12113 11.5931 6.29898C11.7695 6.47682 11.9814 6.61838 12.2161 6.71509C12.4508 6.8118 12.7034 6.86166 12.9587 6.86166C13.214 6.86166 13.4666 6.8118 13.7013 6.71509C13.936 6.61838 14.1479 6.47682 14.3243 6.29898C14.5006 6.12113 14.6377 5.91068 14.7273 5.68035C14.8169 5.45001 14.8571 5.20457 14.8455 4.95884V2.48104H14.4925C14.3051 2.48171 14.1256 2.55373 13.9931 2.68141C13.8606 2.80908 13.7859 2.98206 13.7852 3.16263V4.95884C13.7852 5.17006 13.6981 5.37264 13.5431 5.522C13.3881 5.67136 13.1779 5.75527 12.9587 5.75527C12.7395 5.75527 12.5293 5.67136 12.3743 5.522C12.2193 5.37264 12.1322 5.17006 12.1322 4.95884V2.48104ZM10.2767 2.48104H9.92305C9.73567 2.48171 9.55616 2.55373 9.42367 2.68141C9.29117 2.80908 9.21643 2.98206 9.21575 3.16263V5.9423C9.21643 6.12286 9.29117 6.29584 9.42367 6.42352C9.55616 6.5512 9.73567 6.62322 9.92305 6.62388H10.2767V2.48104ZM9.47952 1.07771H10.0129C10.0817 1.07869 10.1474 1.10545 10.196 1.15232C10.2447 1.19919 10.2724 1.26248 10.2734 1.32876V1.84339C10.2724 1.90967 10.2447 1.97296 10.196 2.01983C10.1474 2.0667 10.0817 2.09347 10.0129 2.09444H9.47952C9.41017 2.09428 9.34367 2.06788 9.29433 2.02092C9.24499 1.97397 9.21677 1.91021 9.21575 1.84339V1.33127C9.21677 1.26445 9.24499 1.2007 9.29433 1.15374C9.34367 1.10678 9.41017 1.08038 9.47952 1.08022V1.07771Z"
  />
  <path
    fill-rule="evenodd"
    clip-rule="evenodd"
    d="M6.74997 5.36291C6.99746 5.33342 7.10166 5.25622 7.09515 4.98133C7.0884 4.7311 7.06425 4.48159 7.02286 4.23448C6.87502 3.43302 6.50899 2.74768 5.92674 2.24057C5.28457 1.68137 4.40012 1.36192 3.28186 1.36506C2.95704 1.36902 2.63523 1.30477 2.33879 1.17677C2.04107 1.04502 1.77645 0.852762 1.5631 0.613183L1.21336 0.227832C1.09245 0.0946704 0.921594 0.0132488 0.738384 0.0014789C0.555173 -0.010291 0.374615 0.0485549 0.236429 0.165071C0.0982426 0.281587 0.0137487 0.44623 0.0015347 0.622778C-0.0106793 0.799327 0.050387 0.973321 0.1713 1.10648L0.521042 1.49121C0.865311 1.87433 1.29083 2.18187 1.76891 2.39308C2.24598 2.5999 2.76397 2.7044 3.28707 2.69935C4.038 2.6937 4.60918 2.88763 4.9993 3.22779C5.37575 3.55541 5.60435 4.03741 5.6812 4.62108C5.76001 5.22798 6.16251 5.43195 6.74997 5.36291ZM0.812168 3.74181C1.39833 3.67277 1.80213 3.87674 1.88093 4.48364C1.95779 5.06731 2.18639 5.55057 2.56348 5.87692C2.95426 6.21583 3.52283 6.41102 4.27507 6.40788C4.79777 6.40197 5.31556 6.50562 5.79257 6.71164C6.27062 6.9229 6.69613 7.23043 7.04044 7.61351L7.39084 7.99887C7.51175 8.13203 7.57282 8.30602 7.5606 8.48257C7.54839 8.65912 7.46389 8.82376 7.32571 8.94028C7.18752 9.05679 7.00696 9.11564 6.82375 9.10387C6.64054 9.0921 6.46969 9.01068 6.34878 8.87752L5.99838 8.49154C5.78484 8.25184 5.5203 8.0592 5.2227 7.92669C4.92625 7.7987 4.60444 7.73445 4.27963 7.73841C3.16137 7.74343 2.27692 7.4246 1.63475 6.85976C1.05249 6.35328 0.686469 5.6673 0.538627 4.86648C0.497235 4.61936 0.473083 4.36985 0.466334 4.11962C0.460472 3.84473 0.564027 3.76754 0.811517 3.73804L0.812168 3.74181ZM3.40886 3.83971H4.15328C4.25065 3.83988 4.34398 3.87722 4.41283 3.94357C4.48168 4.00992 4.52043 4.09985 4.52061 4.19368V4.91104C4.52043 5.00486 4.48168 5.0948 4.41283 5.16115C4.34398 5.2275 4.25065 5.26484 4.15328 5.26501H3.40886C3.31149 5.26484 3.21816 5.2275 3.14931 5.16115C3.08046 5.0948 3.0417 5.00486 3.04153 4.91104V4.19368C3.0417 4.09985 3.08046 4.00992 3.14931 3.94357C3.21816 3.87722 3.31149 3.83988 3.40886 3.83971Z"
  />
</svg>
