<svg viewBox="0 0 24 24" fill="none" xmlns="http://www.w3.org/2000/svg">
  <path
    d="M11.9998 20.8051L8.2662 22.768C6.60448 23.6416 4.54919 23.0027 3.67557 21.341C3.32769 20.6793 3.20765 19.9213 3.33402 19.1845L4.04707 15.0271L1.02654 12.0828C-0.317815 10.7724 -0.345323 8.62029 0.965103 7.27593C1.48692 6.7406 2.17066 6.39222 2.91047 6.28471L7.08473 5.67816L8.95152 1.89563C9.78238 0.212128 11.8207 -0.479079 13.5042 0.351781C14.1746 0.682634 14.7172 1.22525 15.048 1.89563L16.9148 5.67816L21.0891 6.28471C22.9469 6.55468 24.2342 8.27962 23.9642 10.1375C23.8567 10.8773 23.5083 11.561 22.973 12.0828L19.9525 15.0271L20.6655 19.1845C20.9829 21.0349 19.7402 22.7922 17.8898 23.1095C17.153 23.2359 16.3951 23.1158 15.7334 22.768L11.9998 20.8051ZM11.4725 18.522C11.8026 18.3485 12.197 18.3485 12.5271 18.522L16.7879 20.7621C17.0085 20.8781 17.2611 20.9181 17.5067 20.8759C18.1235 20.7702 18.5378 20.1844 18.432 19.5676L17.6182 14.8231C17.5552 14.4555 17.677 14.0805 17.9441 13.8202L21.3912 10.4601C21.5696 10.2861 21.6858 10.0582 21.7216 9.8116C21.8116 9.19232 21.3825 8.61734 20.7632 8.52735L15.9994 7.83513C15.6304 7.7815 15.3113 7.54971 15.1463 7.21528L13.0159 2.89857C12.9056 2.67511 12.7247 2.49424 12.5012 2.38395C11.9401 2.107 11.2606 2.3374 10.9837 2.89857L8.85327 7.21528C8.68822 7.54971 8.36918 7.7815 8.00012 7.83513L3.23634 8.52735C2.98974 8.56318 2.76183 8.67931 2.58789 8.85775C2.15108 9.30587 2.16025 10.0232 2.60837 10.4601L6.05547 13.8202C6.32252 14.0805 6.44439 14.4555 6.38134 14.8231L5.56759 19.5676C5.52547 19.8132 5.56548 20.0659 5.68144 20.2864C5.97265 20.8403 6.65775 21.0533 7.21165 20.7621L11.4725 18.522Z"
  />
</svg>
