<svg width="24" height="16" viewBox="0 0 24 16" fill="none" xmlns="http://www.w3.org/2000/svg">
<path d="M24 3.01866C24 4.68518 22.68 6.03616 21.0516 6.03616C19.4233 6.03616 18.1032 4.68518 18.1032 3.01866C18.1032 1.35215 19.4233 0.0011681 21.0516 0.0011681C22.68 0.0011681 24 1.35215 24 3.01866Z" fill="#F5850B"/>
<path d="M13.082 0.230781C11.5553 -0.404833 9.80233 0.31757 9.16671 1.84431L7.5825 5.64959L5.68048 1.79424C4.94879 0.311142 3.15335 -0.298 1.67025 0.433686C0.187147 1.16537 -0.421996 2.96081 0.309691 4.44391L4.90601 13.7605C5.14641 14.6101 5.75859 15.3458 6.63708 15.7115C8.16383 16.3471 9.91676 15.6247 10.5524 14.098L12.1675 10.2184L14.088 14.1113C14.8197 15.5944 16.6152 16.2036 18.0983 15.4719C19.5814 14.7402 20.1905 12.9448 19.4588 11.4617L14.6894 1.79424C14.6456 1.70536 14.5979 1.61961 14.5467 1.5371C14.2307 0.969339 13.7284 0.499905 13.082 0.230781Z" fill="#191847"/>
</svg>
